<svg width="478" height="512" viewBox="0 0 478 512" fill="none" xmlns="http://www.w3.org/2000/svg">
<path d="M461.067 56.613C443.752 9.822 422.108 0 407 0C372.925 0 340.325 24.177 325.124 37.317C274.777 10.241 203.296 10.202 152.876 37.317C137.675 24.177 105.075 0 71 0C55.892 0 34.248 9.822 16.933 56.613C6.33 85.265 0 120.923 0 152C0 183.029 6.336 218.517 16.948 246.93C34.258 293.272 55.896 303 71 303C91.06 303 109.061 294.914 123.19 285.546L112.116 374.14C110.846 384.286 119.905 392.715 129.941 390.709C131.408 390.416 157.629 384.744 181.911 352.472L193.137 442.749C198.047 482.228 231.75 512 271.533 512H343C373.327 512 398 487.327 398 457V432C398 423.716 391.284 417 383 417H327C313.215 417 302 405.785 302 392V359.79C324.447 385.628 346.71 390.439 348.059 390.709C358.132 392.722 367.149 384.246 365.884 374.14L354.81 285.546C368.939 294.914 386.94 303 407 303C422.104 303 443.742 293.272 461.052 246.93C471.664 218.517 478 183.029 478 152C478 120.923 471.67 85.265 461.067 56.613V56.613ZM145.585 348.253L153.678 283.506L173.684 306.848C164.874 327.252 154.55 340.161 145.585 348.253V348.253ZM304.317 306.846L324.322 283.506L332.407 348.189C323.447 340.085 313.108 327.18 304.317 306.846ZM432.948 236.433C422.145 265.357 411.251 273 407 273C374.851 273 346.969 238.946 346.713 238.63C340.805 231.244 329.68 231.155 323.611 238.238L275.611 294.238C273.281 296.957 272 300.419 272 304V392C272 422.327 296.673 447 327 447H368V457C368 470.785 356.785 482 343 482H271.534C246.858 482 225.954 463.534 222.909 439.047L205.886 302.15C205.522 299.226 204.306 296.475 202.389 294.239L154.389 238.239C148.321 231.159 137.227 231.278 131.309 238.603C131.031 238.946 103.149 273 71 273C66.749 273 55.855 265.357 45.052 236.433C35.768 211.575 30 179.223 30 152C30 124.701 35.773 92.141 45.067 67.025C55.12 39.86 66.084 30 71 30C98.463 30 130.32 56.341 140.264 66.475C145.525 71.868 153.972 72.521 160 68C160.28 67.79 188.583 47 239 47C288.738 47 317.781 67.841 318 68C324.015 72.51 332.457 71.855 337.722 66.49C347.68 56.341 379.537 30 407 30C411.916 30 422.88 39.86 432.933 67.025C442.227 92.141 448 124.701 448 152C448 179.223 442.232 211.575 432.948 236.433V236.433Z" fill="#F7C702"/>
<path d="M295 215.006C303.284 215.006 310 208.29 310 200.006C310 191.722 303.284 185.006 295 185.006C286.716 185.006 280 191.722 280 200.006C280 208.29 286.716 215.006 295 215.006Z" fill="#F7C702"/>
<path d="M191 215.006C199.284 215.006 206 208.29 206 200.006C206 191.722 199.284 185.006 191 185.006C182.716 185.006 176 191.722 176 200.006C176 208.29 182.716 215.006 191 215.006Z" fill="#F7C702"/>
</svg>
