<svg width="430" height="512" viewBox="0 0 430 512" fill="none" xmlns="http://www.w3.org/2000/svg">
<path d="M409.209 81.16C401.45 75.125 385.648 65 367 65C349.082 65 329.496 78.362 308.604 104.767C306.066 81.558 300.962 47.093 291.96 25.61C284.838 8.616 275.095 0 263 0C253.553 0 240.344 3.934 231.065 22.675C222.981 39 220.245 60.905 215 75.737C209.738 60.857 207.028 39.019 198.935 22.675C189.656 3.934 176.447 0 167 0C154.905 0 145.162 8.616 138.041 25.609C129.048 47.07 123.942 81.494 121.397 104.767C100.499 78.36 80.912 65 63 65C48.676 65 33.189 72.598 19.394 86.394C16.155 89.632 0 106.472 0 120C0 163.069 50.471 190.601 91.173 204.047L80.77 235.257C80.26 236.786 80 238.388 80 240C80 272.415 116.841 326.865 141.595 385.441C137.946 391.5 136 399.093 136 408C136 425.219 147.921 451.367 159.736 469.644C172.228 488.967 191.956 512 215 512C238.044 512 257.772 488.967 270.264 469.644C282.079 451.367 294 425.219 294 408C294 399.093 292.054 391.501 288.405 385.441C312.877 327.53 350 272.293 350 240C350 238.388 349.74 236.786 349.23 235.257L338.651 203.521C347.235 199.962 363.077 192.822 379.052 182.656C412.859 161.143 430 137.37 430 112C430 98.76 415.46 86.021 409.209 81.16V81.16ZM97.02 174.409C73.031 166.067 31.563 146.526 30.043 121.422C33.25 114.04 50.124 95 63 95C70.477 95 86.342 105.932 107.326 136.187C102.885 146.171 98.841 158.922 97.02 174.409V174.409ZM245.07 453.356C231.484 474.372 219.644 482 215 482C210.356 482 198.516 474.372 184.93 453.356C173.238 435.27 166 415.73 166 408C166 403.733 166.83 401.383 167.606 400.606C168.383 399.83 170.733 399 175 399C188.019 399 195.962 390.28 201.762 383.914C207.655 377.444 210.323 375 215 375C219.677 375 222.345 377.444 228.238 383.914C234.038 390.28 241.981 399 255 399C259.267 399 261.617 399.83 262.394 400.606C263.17 401.383 264 403.733 264 408C264 415.73 256.762 435.27 245.07 453.356ZM262.596 369.516C260.397 369.208 258.102 369.032 255.705 369.004C249.717 364.858 239.249 345 215 345C190.781 345 180.265 364.87 174.295 369.004C171.898 369.031 169.603 369.208 167.404 369.516C146.979 322.449 116.624 272.203 110.893 246.777C122.933 237.944 149.346 219.876 170.638 214.552C178.675 212.543 183.561 204.399 181.552 196.363C179.542 188.325 171.4 183.432 163.362 185.449C150.053 188.776 135.802 195.628 123.18 202.896C125.349 196.388 126 195.066 126 192C126 152.169 144.266 132.032 145.652 130.562C148.279 128.015 149.677 124.793 149.957 121.141C151.466 101.391 158.028 47.475 168.884 30.896C173.646 35.277 178.342 54.572 180.49 63.401C182.96 73.551 185.294 83.14 188.889 91.108C196.308 107.549 207.183 111 215 111C222.817 111 233.692 107.549 241.11 91.108C244.706 83.14 247.039 73.551 249.509 63.401C251.658 54.572 256.353 35.277 261.115 30.896C271.972 47.477 278.506 101.219 280.042 121.139C280.32 124.793 281.719 128.014 284.346 130.562C285.734 132.032 304 152.169 304 192C304 194.938 304.525 196.011 306.82 202.896C294.198 195.627 279.947 188.776 266.638 185.449C258.6 183.441 250.457 188.326 248.448 196.363C246.439 204.399 251.325 212.544 259.362 214.552C280.656 219.876 307.069 237.946 319.107 246.778C313.38 272.183 283.036 322.415 262.596 369.516V369.516ZM332.854 173.398C330.979 158.368 327.019 145.952 322.675 136.186C343.644 105.944 359.503 95 367 95C380.94 95 396.194 108.122 399.919 113.977C397.87 139.26 357.162 162.551 332.854 173.398Z" fill="#F7C702"/>
<path d="M279 270.994C287.284 270.994 294 264.278 294 255.994C294 247.71 287.284 240.994 279 240.994C270.716 240.994 264 247.71 264 255.994C264 264.278 270.716 270.994 279 270.994Z" fill="#F7C702"/>
<path d="M151 271C159.284 271 166 264.284 166 256C166 247.716 159.284 241 151 241C142.716 241 136 247.716 136 256C136 264.284 142.716 271 151 271Z" fill="#F7C702"/>
</svg>
