<svg width="494" height="512" viewBox="0 0 494 512" fill="none" xmlns="http://www.w3.org/2000/svg">
<path d="M374 184C374 126.827 302.453 73 247 73C191.547 73 120 126.827 120 184C120 218.917 115.122 232.712 110.819 244.884C107.467 254.366 104 264.172 104 280C104 298.8 117.07 322.157 143.957 351.406C158.196 366.896 172.273 379.581 178.301 384.854C183.265 396.421 199.807 423 247 423C294.193 423 310.735 396.421 315.699 384.854C321.727 379.581 335.804 366.896 350.043 351.406C376.93 322.157 390 298.8 390 280C390 264.172 386.533 254.366 383.181 244.884C378.878 232.712 374 218.917 374 184ZM247 393C223.107 393 212.661 383.855 208.304 377.593C211.439 373.407 215.893 367.769 221.057 362.136C238.106 343.537 246.14 343 247 343C247.853 343 255.816 343.53 272.711 361.884C277.946 367.571 282.499 373.333 285.693 377.597C281.334 383.859 270.887 393 247 393V393ZM328.156 330.887C319.96 339.819 311.684 347.865 305.259 353.845C294.164 339.892 278.398 322.959 262 316.189V296.028L279.32 284.481C286.214 279.886 288.076 270.573 283.48 263.68C278.884 256.787 269.572 254.925 262.679 259.52L247 269.973L231.32 259.52C224.427 254.924 215.114 256.787 210.519 263.68C205.923 270.573 207.786 279.886 214.679 284.481L232 296.027V316.188C215.602 322.959 199.835 339.892 188.741 353.844C182.315 347.863 174.04 339.818 165.844 330.886C136.296 298.687 134 283.797 134 280C134 253.214 150 249.167 150 184C150 144.892 206.932 103 247 103C287.068 103 344 144.892 344 184C344 249.222 360 253.097 360 280C360 283.797 357.704 298.687 328.156 330.887V330.887Z" fill="#F7C702"/>
<path d="M217.606 189.394C214.794 186.58 210.979 185 207 185H191C182.716 185 176 191.716 176 200C176 208.284 182.716 215 191 215H200.787L204.393 218.606C210.252 224.465 219.748 224.464 225.606 218.606C231.464 212.749 231.464 203.251 225.606 197.393L217.606 189.394Z" fill="#F7C702"/>
<path d="M303 185H287C283.021 185 279.206 186.58 276.394 189.394L268.394 197.394C262.536 203.251 262.536 212.749 268.394 218.607C274.252 224.466 283.749 224.465 289.607 218.607L293.213 215.001H303C311.284 215.001 318 208.285 318 200.001C318 191.717 311.284 185 303 185Z" fill="#F7C702"/>
<path d="M448.02 172.261L461.708 165.416C466.79 162.876 470 157.682 470 152C470 129.251 461.52 105.287 445.42 82.328C451.253 41.215 412.893 7.705 372.884 19.253C349.021 6.648 324.987 0 303 0C274.05 0 256.147 4.509 247 7.761C237.853 4.509 219.95 0 191 0C169.013 0 144.979 6.648 121.116 19.253C81.218 7.737 42.733 41.115 48.58 82.328C32.48 105.287 24 129.251 24 152C24 157.682 27.21 162.876 32.292 165.416L45.98 172.261C27.817 193.313 0 234.321 0 288C0 296.284 6.716 303 15 303H32.432C21.746 332.024 13.622 368.944 25.074 397.571C28.022 404.946 36.212 408.742 43.744 406.23L75.061 395.791C89.468 461.206 136.112 477.515 138.257 478.23C142.927 479.787 148.063 478.953 152 476L172.699 460.476C199.442 488.954 238.226 509.344 240.071 510.304C244.413 512.566 249.587 512.566 253.928 510.304C255.794 509.332 295.492 488.462 322.257 459.448L351.281 476.863C355.3 479.273 360.216 479.671 364.57 477.927C366.384 477.201 405.818 460.682 419.07 395.835L450.256 406.231C457.787 408.741 465.977 404.945 468.926 397.572C480.377 368.946 472.254 332.027 461.568 303.001H479C487.284 303.001 494 296.285 494 288.001C494 234.321 466.183 193.313 448.02 172.261V172.261ZM439 273C427.871 273 420.598 284.739 425.584 294.708C432.422 308.384 446.767 344.921 444.212 372.593L411.743 361.77C402.682 358.75 393.144 364.867 392.092 374.344C387.041 419.8 368.62 439.307 359.034 446.528L326.718 427.138C320.126 423.183 311.613 424.85 307 431C290.517 452.978 260.519 471.941 247 479.812C233.477 471.938 203.482 452.975 187 431C182.028 424.372 172.628 423.03 166 428L141.34 446.495C137.886 444.394 133.363 441.149 128.607 436.393C114.032 421.818 104.799 400.361 101.909 374.343C100.855 364.849 91.3 358.753 82.258 361.769L49.802 372.588C47.291 344.975 61.601 308.402 68.417 294.707C73.394 284.754 66.146 273 55 273H30.92C37.75 217.244 80.319 179.771 80.762 179.389C88.877 172.433 87.326 159.392 77.708 154.584L54.622 143.041C55.903 133.664 59.162 123.925 64.265 114.101C64.428 114.268 64.581 114.442 64.747 114.607C70.604 120.466 80.101 120.465 85.961 114.607C91.818 108.749 91.817 99.252 85.96 93.394C80.827 88.261 78 81.436 78 74.177C78 59.158 90.156 47 105.177 47C112.436 47 119.261 49.827 124.394 54.96C130.25 60.818 139.748 60.817 145.607 54.961C149.859 50.709 151.008 44.544 149.088 39.24C163.767 33.223 178.188 30 191 30C223.674 30 238.263 36.439 239.773 37.151C244.513 40.012 249.486 40.012 254.226 37.151C255.737 36.439 270.326 30 303 30C315.812 30 330.233 33.223 344.913 39.24C342.992 44.544 344.142 50.709 348.394 54.961C354.251 60.818 363.749 60.817 369.607 54.96C380.227 44.34 397.419 44.337 408.041 54.961C418.662 65.58 418.663 82.772 408.041 93.394C402.184 99.251 402.183 108.748 408.04 114.607C413.897 120.464 423.394 120.467 429.254 114.607C429.419 114.442 429.573 114.268 429.736 114.101C434.839 123.925 438.099 133.664 439.379 143.041L416.293 154.584C406.735 159.362 405.075 172.39 413.239 179.389C413.706 179.789 456.3 216.927 463.092 273H439Z" fill="#F7C702"/>
</svg>
