<svg width="512" height="512" viewBox="0 0 512 512" fill="none" xmlns="http://www.w3.org/2000/svg">
<g clip-path="url(#clip0_2_34)">
<path d="M344.172 320.626H167.828C159.528 320.626 152.798 327.355 152.798 335.655V431.843C152.798 440.143 159.528 446.873 167.828 446.873H344.172C352.472 446.873 359.202 440.143 359.202 431.843V335.655C359.202 327.355 352.472 320.626 344.172 320.626ZM329.143 416.814H182.857V350.685H329.143V416.814Z" fill="#F7C702"/>
<path d="M472.423 280.548H415.311V244.88C429.818 234.944 439.358 218.262 439.358 199.389V79.1546C439.358 70.8544 432.629 64.1252 424.329 64.1252H327.139V47.092C327.139 21.1253 306.014 0 280.047 0H231.953C205.986 0 184.861 21.1253 184.861 47.092V64.1252H87.6713C79.371 64.1252 72.6419 70.8544 72.6419 79.1546V199.389C72.6419 218.262 82.1825 234.944 96.6889 244.88V280.548H39.5773C31.2771 280.548 24.548 287.277 24.548 295.577V351.687C24.548 357.452 27.7983 362.454 32.5636 364.975V407.796C32.5636 433.763 53.6889 454.888 79.6556 454.888H99.835C109.407 487.839 139.847 512 175.843 512H336.157C372.153 512 402.592 487.839 412.165 454.888H432.344C458.311 454.888 479.436 433.763 479.436 407.796V364.975C484.202 362.454 487.452 357.453 487.452 351.687V295.577C487.452 287.277 480.723 280.548 472.423 280.548ZM457.393 310.607V336.658H415.311V310.607H457.393ZM214.92 47.092C214.92 37.6996 222.561 30.0587 231.953 30.0587H280.047C289.439 30.0587 297.08 37.6996 297.08 47.092V64.1252H214.92V47.092ZM102.701 94.184H409.299V199.389C409.299 213.201 398.062 224.438 384.251 224.438H359.202V199.389C359.202 191.089 352.472 184.36 344.172 184.36H288.063C279.762 184.36 273.033 191.089 273.033 199.389V224.438H238.967V199.389C238.967 191.089 232.238 184.36 223.937 184.36H167.828C159.528 184.36 152.798 191.089 152.798 199.389V224.438H127.75C113.938 224.438 102.701 213.201 102.701 199.389V94.184ZM303.092 214.419H329.143V264.517H303.092V214.419ZM182.857 214.419H208.908V264.517H182.857V214.419ZM54.6067 310.607H96.6889V336.658H54.6067V310.607ZM62.6223 407.796V366.716H96.6889V424.83H79.6556C70.2633 424.83 62.6223 417.189 62.6223 407.796ZM336.157 481.941H175.843C148.772 481.941 126.748 459.917 126.748 432.845V254.472L152.798 254.497V279.546C152.798 287.846 159.528 294.575 167.828 294.575H223.937C232.238 294.575 238.967 287.846 238.967 279.546V254.497H273.033V279.546C273.033 287.846 279.762 294.575 288.063 294.575H344.172C352.472 294.575 359.202 287.846 359.202 279.546V254.497L385.252 254.472V432.845C385.252 459.917 363.228 481.941 336.157 481.941ZM432.344 424.83H415.311V366.716H449.378V407.796C449.378 417.189 441.737 424.83 432.344 424.83Z" fill="#F7C702"/>
</g>
<defs>
<clipPath id="clip0_2_34">
<rect width="512" height="512" fill="white"/>
</clipPath>
</defs>
</svg>
