<svg width="512" height="512" viewBox="0 0 512 512" fill="none" xmlns="http://www.w3.org/2000/svg">
<path d="M200.005 110.988C208.288 110.988 215.003 104.273 215.003 95.9893C215.003 87.7058 208.288 80.9907 200.005 80.9907C191.721 80.9907 185.006 87.7058 185.006 95.9893C185.006 104.273 191.721 110.988 200.005 110.988Z" fill="#F7C702"/>
<path d="M200.005 174.99C208.288 174.99 215.003 168.275 215.003 159.991C215.003 151.708 208.288 144.993 200.005 144.993C191.721 144.993 185.006 151.708 185.006 159.991C185.006 168.275 191.721 174.99 200.005 174.99Z" fill="#F7C702"/>
<path d="M168.008 142.992C176.291 142.992 183.006 136.277 183.006 127.993C183.006 119.71 176.291 112.995 168.008 112.995C159.724 112.995 153.009 119.71 153.009 127.993C153.009 136.277 159.724 142.992 168.008 142.992Z" fill="#F7C702"/>
<path d="M311.994 110.986C320.278 110.986 326.993 104.271 326.993 95.9874C326.993 87.7039 320.278 80.9888 311.994 80.9888C303.711 80.9888 296.996 87.7039 296.996 95.9874C296.996 104.271 303.711 110.986 311.994 110.986Z" fill="#F7C702"/>
<path d="M311.994 174.989C320.278 174.989 326.993 168.274 326.993 159.99C326.993 151.707 320.278 144.992 311.994 144.992C303.711 144.992 296.996 151.707 296.996 159.99C296.996 168.274 303.711 174.989 311.994 174.989Z" fill="#F7C702"/>
<path d="M343.991 142.992C352.275 142.992 358.99 136.277 358.99 127.993C358.99 119.71 352.275 112.995 343.991 112.995C335.708 112.995 328.993 119.71 328.993 127.993C328.993 136.277 335.708 142.992 343.991 142.992Z" fill="#F7C702"/>
<path d="M494.978 55.9949C494.978 15.2016 471.058 0 455.981 0C423.862 0 385.902 24.1368 360.625 44.101C334.425 29.1043 299.73 16.9984 255.999 16.9984C212.269 16.9984 177.574 29.1043 151.374 44.101C126.063 24.1098 88.1189 0 56.0178 0C40.9412 0 17.0214 15.2016 17.0214 55.9949C17.0214 91.8796 36.7636 119.744 68.0557 135.861C60.4654 154.139 49.0185 186.581 49.0185 215.98C49.0185 265.32 88.2849 320.795 124.366 361.35C117.652 372.661 113.013 385.297 113.013 399.963C113.013 443.52 148.448 478.956 192.005 478.956H199.555C229.603 523.04 282.43 522.989 312.443 478.956H319.993C363.55 478.956 398.985 443.52 398.985 399.963C398.985 385.297 394.345 372.66 387.632 361.35C423.713 320.795 462.979 265.32 462.979 215.98C462.979 186.581 451.533 154.139 443.942 135.861C475.199 119.762 494.978 91.9186 494.978 55.9949ZM47.0187 55.9949C47.0187 37.0236 54.214 30.8402 56.5238 30.0002C77.6409 30.2802 106.436 47.9766 125.266 61.8573C108.042 75.6221 93.0144 92.2715 81.7855 109.242C68.4197 102.42 47.0187 86.7 47.0187 55.9949ZM230.971 470.201L256 445.172L281.03 470.201C265.728 485.787 246.476 485.995 230.971 470.201ZM417.57 268.347L410.591 261.369C404.735 255.513 395.238 255.513 389.38 261.369C383.523 267.225 383.523 276.723 389.38 282.58L401.717 294.918C392.715 308.314 381.852 322.353 369.235 336.845C352.319 317.397 334.991 300.909 334.991 279.974V234.133L365.559 221.906C373.25 218.83 376.991 210.101 373.914 202.409C370.838 194.72 362.111 190.975 354.417 194.055L314.421 210.054C308.728 212.331 304.993 217.846 304.993 223.979V279.974C304.993 334.788 368.987 360.269 368.987 399.963C368.987 426.98 347.008 448.959 319.992 448.959H302.206L270.996 417.749V383.992L288.315 372.446C295.208 367.851 297.07 358.539 292.474 351.647C287.879 344.753 278.566 342.892 271.675 347.487L255.996 357.939L240.318 347.487C233.427 342.892 224.114 344.754 219.519 351.647C214.923 358.539 216.786 367.851 223.678 372.446L240.997 383.992V417.749L209.792 448.959H192.006C164.99 448.959 143.011 426.98 143.011 399.963C143.011 360.216 207.005 334.822 207.005 279.974V223.979C207.005 217.846 203.271 212.332 197.577 210.054L157.581 194.055C149.887 190.976 141.16 194.72 138.084 202.409C135.008 210.101 138.748 218.83 146.439 221.906L177.007 234.133V279.974C177.007 300.995 159.526 317.574 142.763 336.845C130.146 322.354 119.283 308.315 110.281 294.918L122.618 282.58C128.475 276.724 128.475 267.226 122.618 261.369C116.761 255.513 107.264 255.513 101.407 261.369L94.4283 268.347C84.3062 248.695 79.0157 230.98 79.0157 215.98C79.0157 180.087 101.211 135.137 101.436 134.687C101.524 134.513 112.992 112.235 137.877 90.4067C167.061 64.8101 201.695 50.4364 241.001 47.5496V167.985C241.001 176.268 247.716 182.983 255.999 182.983C264.283 182.983 270.998 176.268 270.998 167.985V47.5496C310.304 50.4374 344.938 64.8111 374.122 90.4067C399.008 112.235 410.475 134.513 410.563 134.687C410.788 135.137 432.983 180.087 432.983 215.98C432.983 230.98 427.694 248.695 417.57 268.347ZM430.214 109.242C419.005 92.2995 403.984 75.6441 386.733 61.8573C405.565 47.9756 434.359 30.2802 455.476 30.0002C457.786 30.8402 464.981 37.0236 464.981 55.9949C464.98 86.7 443.58 102.42 430.214 109.242Z" fill="#F7C702"/>
</svg>
