<svg width="512" height="512" viewBox="0 0 512 512" fill="none" xmlns="http://www.w3.org/2000/svg">
<path d="M480 161H440.826L365.112 24.716C362.467 19.953 357.447 17 352 17H296C292.021 17 288.206 18.58 285.394 21.394L273.787 33H241.397L229.497 8.456C226.989 3.284 221.747 0 216 0H120C117.039 0 114.145 0.876 111.681 2.519L43.867 47.715C27.53 57.459 17 76.354 17 96V168C17 192.062 33.643 226.882 61.492 243.501C80.102 254.607 100.569 255.211 119.122 245.201C146.326 230.525 159.042 229.922 162.31 230.079L193 248.493V272C193 277.016 195.438 281.652 199.61 284.435C204.447 287.739 217 299.136 217 312C217 338.761 203.619 359.526 203.52 359.68C200.696 363.916 200.213 369.296 202.239 373.967L250.394 485.036C257.56 501.416 273.742 512 291.62 512H329C343.09 512 356.549 505.271 365.001 493.999C365.027 493.963 365.055 493.927 365.082 493.891L404.082 440.891C406.967 436.969 407.768 431.884 406.232 427.264C404.258 421.322 399.194 403.742 399.005 392.627C401.097 387.106 416.447 374.049 431.717 364.862C436.235 362.151 439 357.269 439 352V304C439 279.331 452.48 264.086 466.753 247.945C480.641 232.241 495 216.002 495 192V176C495 167.716 488.284 161 480 161ZM465 192C465 204.03 457.126 213.545 444.279 228.073C428.562 245.848 409 267.97 409 304V343.806C405.013 346.478 399.835 350.122 394.63 354.287C377.144 368.275 369 380.259 369 392C369 404.497 372.83 420.02 375.452 429.18L340.963 476.05C338.144 479.777 333.677 482 329 482H291.62C285.661 482 280.266 478.472 277.897 473.058L232.739 368.9C238.216 358.325 247 337.403 247 312C247 289.424 232.041 272.786 223 264.794V240C223 234.731 220.235 229.849 215.718 227.138L175.718 203.138C175.366 202.927 175.007 202.731 174.64 202.55C168.416 199.477 149.161 194.907 104.878 218.799C95.606 223.802 86.442 223.454 76.865 217.739C59.772 207.539 47 183.066 47 168V96C47 86.798 51.984 77.708 59.402 73.381L124.541 30H206.603L218.503 54.544C221.011 59.716 226.253 63 232 63H280C283.979 63 287.794 61.42 290.606 58.606L302.213 47H343.174L418.888 183.284C421.533 188.047 426.553 191 432 191H465V192Z" fill="#F7C702"/>
</svg>
