<svg width="512" height="512" viewBox="0 0 512 512" fill="none" xmlns="http://www.w3.org/2000/svg">
<path d="M398.903 330.3C397.698 254.571 385.139 191.954 378.481 163.796C399.743 156.187 415 135.845 415 112V96C415 87.716 408.284 81 400 81H348.327L341.086 44.341C336.01 18.648 313.318 0 287.128 0H224.871C198.682 0 175.989 18.648 170.913 44.341L163.673 81H112C103.716 81 97 87.716 97 96V112C97 135.845 112.257 156.187 133.519 163.796C126.862 191.954 114.303 254.57 113.097 330.299C89.409 336.958 73 358.489 73 383.231V497C73 505.284 79.716 512 88 512H424C432.284 512 439 505.284 439 497V383.231C439 358.489 422.591 336.958 398.903 330.3ZM200.346 50.155C202.653 38.477 212.967 30 224.872 30H287.129C299.033 30 309.348 38.477 311.655 50.154L317.747 81H194.253L200.346 50.155ZM127 112V111H385V112C385 125.785 373.785 137 360 137H152C138.215 137 127 125.785 127 112ZM368.73 322.721L311 308.288V272.632C325.787 258.267 335 238.194 335 216V167H348.361C354.07 190.639 366.727 250.414 368.73 322.721ZM305 167V216C305 243.019 283.019 265 256 265C228.981 265 207 243.019 207 216V167H305ZM201 272.632V308.288L143.27 322.721C145.273 250.414 157.93 190.64 163.638 167H177V216C177 238.194 186.213 258.267 201 272.632ZM241 482H167V440C167 431.716 160.284 425 152 425C143.716 425 137 431.716 137 440V482H103V415H112C120.284 415 127 408.284 127 400C127 391.716 120.284 385 112 385H103V383.231C103 371.738 110.787 361.764 121.937 358.977L210.504 336.835L241 373.431V482ZM231 314.569V290.922C247.237 296.355 264.729 296.366 281 290.922V314.569L256 344.569L231 314.569ZM409 385H400C391.716 385 385 391.716 385 400C385 408.284 391.716 415 400 415H409V482H375V440C375 431.716 368.284 425 360 425C351.716 425 345 431.716 345 440V482H271V373.431L301.496 336.836L390.063 358.979C401.212 361.765 409 371.739 409 383.232V385Z" fill="#F7C702"/>
<path d="M312 447.002C320.284 447.002 327 440.286 327 432.002C327 423.718 320.284 417.002 312 417.002C303.716 417.002 297 423.718 297 432.002C297 440.286 303.716 447.002 312 447.002Z" fill="#F7C702"/>
<path d="M200 447.002C208.284 447.002 215 440.286 215 432.002C215 423.718 208.284 417.002 200 417.002C191.716 417.002 185 423.718 185 432.002C185 440.286 191.716 447.002 200 447.002Z" fill="#F7C702"/>
</svg>
