<svg width="300" height="300" viewBox="0 0 300 300" fill="none" xmlns="http://www.w3.org/2000/svg">
<path d="M200.013 213.122L225.846 187.289C229.325 183.853 233.727 181.501 238.518 180.518C243.308 179.535 248.281 179.965 252.832 181.754L284.316 194.324C288.915 196.191 292.859 199.377 295.65 203.482C298.441 207.587 299.955 212.426 300 217.389V275.052C299.973 278.428 299.263 281.765 297.913 284.859C296.563 287.954 294.601 290.744 292.144 293.061C289.688 295.377 286.788 297.173 283.619 298.339C280.45 299.505 277.078 300.018 273.706 299.847C53.088 286.123 8.57235 99.2958 0.153584 27.7939C-0.23722 24.2827 0.119848 20.7285 1.2013 17.3652C2.28275 14.0018 4.06406 10.9056 6.42807 8.28011C8.79207 5.65465 11.6852 3.55947 14.9171 2.13242C18.149 0.705373 21.6464 -0.0212102 25.1792 0.000471324H80.8815C85.8521 0.0151844 90.7047 1.51663 94.815 4.31168C98.9254 7.10673 102.106 11.0676 103.947 15.6847L116.517 47.1686C118.365 51.7017 118.837 56.6789 117.873 61.4784C116.909 66.2778 114.552 70.6869 111.097 74.1548L85.2638 99.9877C85.2638 99.9877 100.141 200.667 200.013 213.122Z" fill="#F7C702"/>
</svg>
